<svg xmlns="http://www.w3.org/2000/svg" style="display:none;">
  <symbol id="arrow-down" viewBox="0 0 16 16" stroke-width="var(--icon-stroke-width, 1.75)">
    <path fill="none" stroke="currentColor" d="m13 8.5-5 5-5-5m5-7v12"/>
  </symbol>
  <symbol id="arrow-left" viewBox="0 0 16 16" stroke-width="var(--icon-stroke-width, 1.75)">
    <path fill="none" stroke="currentColor" d="m7.5 13-5-5 5-5m7 5h-12"/>
  </symbol>
  <symbol id="arrow-right" viewBox="0 0 16 16" stroke-width="var(--icon-stroke-width, 1.75)">
    <path fill="none" stroke="currentColor" d="m8.5 3 5 5-5 5m-7-5h12"/>
  </symbol>
  <symbol id="arrow-up" viewBox="0 0 16 16" stroke-width="var(--icon-stroke-width, 1.75)">
    <path fill="none" stroke="currentColor" d="m3 7.5 5-5 5 5m-5 7v-12"/>
  </symbol>
  <symbol id="chevron-down" viewBox="0 0 16 16" stroke-width="var(--icon-stroke-width, 1.75)">
    <path fill="none" stroke="currentColor" d="M6 1v9h9" transform="rotate(315,8,8)"/>
  </symbol>
  <symbol id="chevron-left" viewBox="0 0 16 16" stroke-width="var(--icon-stroke-width, 1.75)">
    <path fill="none" stroke="currentColor" d="M6 1v9h9" transform="rotate(45,8,8)"/>
  </symbol>
  <symbol id="chevron-right" viewBox="0 0 16 16" stroke-width="var(--icon-stroke-width, 1.75)">
    <path fill="none" stroke="currentColor" d="M6 1v9h9" transform="rotate(225,8,8)"/>
  </symbol>
  <symbol id="chevron-up" viewBox="0 0 16 16" stroke-width="var(--icon-stroke-width, 1.75)">
    <path fill="none" stroke="currentColor" d="M6 1v9h9" transform="rotate(135,8,8)"/>
  </symbol>
  <symbol id="circle-fill" viewBox="0 0 16 16" fill="var(--icon-fill, currentColor)" stroke-width="var(--icon-stroke-width, 1.75)">
    <circle stroke="currentColor" cx="8" cy="8" r="6"/>
  </symbol>
  <symbol id="circle" viewBox="0 0 16 16" fill="var(--icon-fill, none)" stroke-width="var(--icon-stroke-width, 1.75)">
    <circle stroke="currentColor" cx="8" cy="8" r="6"/>
  </symbol>
  <symbol id="close" viewBox="0 0 16 16" stroke-width="var(--icon-stroke-width, 1.75)">
    <path fill="none" stroke="currentColor" d="M1 8h14M8 1v14" transform="rotate(45,8,8)"/>
  </symbol>
  <symbol id="globe" viewBox="0 0 16 16" stroke-width="var(--icon-stroke-width, 1)">
    <g fill="none" stroke="currentColor">
      <circle cx="8" cy="8" r="6.5"/>
      <ellipse cx="8" cy="8" rx="2.5" ry="6.5"/>
      <path d="M1.675 6.5h12.65m-12.65 3h12.65"/>
    </g>
  </symbol>
  <symbol id="menu" viewBox="0 0 16 16" stroke-width="var(--icon-stroke-width, 1.75)">
    <path fill="none" stroke="currentColor" d="M1 2h14M1 8h14M1 14h14"/>
  </symbol>
  <symbol id="minus" viewBox="0 0 16 16" stroke-width="var(--icon-stroke-width, 1.75)">
    <path fill="none" stroke="currentColor" d="M1 8h14"/>
  </symbol>
  <symbol id="phone-fill" viewBox="0 0 16 16" fill="var(--icon-fill, currentColor)" stroke-width="var(--icon-stroke-width, 1)">
    <path stroke="currentColor" stroke-linejoin="round" d="M14.5 11.33 11 9.85l-1.6 1.97a10 10 0 0 1-5.15-5.34L6.1 4.96 4.66 1.5c-1.87.16-3.51 1.8-3.1 3.76a11.9 11.9 0 0 0 9.13 9.16c2.2.47 3.31-1.26 3.81-3.09z"/>
  </symbol>
  <symbol id="phone" viewBox="0 0 16 16" fill="var(--icon-fill, none)" stroke-width="var(--icon-stroke-width, 1)">
    <path stroke="currentColor" stroke-linejoin="round" d="M14.5 11.33 11 9.85l-1.6 1.97a10 10 0 0 1-5.15-5.34L6.1 4.96 4.66 1.5c-1.87.16-3.51 1.8-3.1 3.76a11.9 11.9 0 0 0 9.13 9.16c2.2.47 3.31-1.26 3.81-3.09z"/>
  </symbol>
  <symbol id="plus" viewBox="0 0 16 16" stroke-width="var(--icon-stroke-width, 1.75)">
    <path fill="none" stroke="currentColor" d="M1 8h14M8 1v14"/>
  </symbol>
  <symbol id="search" viewBox="0 0 16 16" stroke-width="var(--icon-stroke-width, 1.75)">
    <g fill="none" stroke="currentColor">
      <path d="M14.39 14.39 9.69 9.69"/>
      <circle cx="6.5" cy="6.5" r="4.5"/>
    </g>
  </symbol>
  <symbol id="sort-down" viewBox="0 0 16 16" stroke-width="var(--icon-stroke-width, 1.75)">
    <path fill="none" stroke="currentColor" d="M4 7v5h5" transform="rotate(-45,8,8)"/>
  </symbol>
  <symbol id="sort-up" viewBox="0 0 16 16" stroke-width="var(--icon-stroke-width, 1.75)">
    <path fill="none" stroke="currentColor" d="M4 7v5h5" transform="rotate(135,8,8)"/>
  </symbol>
  <symbol id="sort" viewBox="0 0 16 16" stroke-width="var(--icon-stroke-width, 1.75)">
    <path fill="none" stroke="currentColor" d="M4 7v5h5m3-3V4H7" transform="rotate(-45,8,8)"/>
  </symbol>
  <symbol id="square-fill" viewBox="0 0 16 16" fill="var(--icon-fill, currentColor)" stroke-width="var(--icon-stroke-width, 1.75)">
    <path stroke="currentColor" d="M2 2h12v12H2z"/>
  </symbol>
  <symbol id="square" viewBox="0 0 16 16" fill="var(--icon-fill, none)" stroke-width="var(--icon-stroke-width, 1.75)">
    <path stroke="currentColor" d="M2 2h12v12H2z"/>
  </symbol>
  <symbol id="star-fill" viewBox="0 0 16 16" fill="var(--icon-fill, currentColor)" stroke-width="var(--icon-stroke-width, 1.75)">
    <path stroke="currentColor" d="m8 2.77 1.3 4h4.2l-3.4 2.46 1.3 4L8 10.75l-3.4 2.48 1.3-4-3.4-2.47 4.2.01z"/>
  </symbol>
  <symbol id="star" viewBox="0 0 16 16" fill="var(--icon-fill, none)" stroke-width="var(--icon-stroke-width, 1.75)">
    <path stroke="currentColor" d="m8 2.77 1.3 4h4.2l-3.4 2.46 1.3 4L8 10.75l-3.4 2.48 1.3-4-3.4-2.47 4.2.01z"/>
  </symbol>
  <symbol id="whatsapp" viewBox="0 0 16 16">
    <path fill="currentColor" stroke="none" d="m.95 15.12 1-3.62A7 7 0 1 1 8 15c-1.9.02-3.35-.85-3.35-.85zm5.3-10.05c-.13-.29-.27-.3-.39-.3h-.33c-.12 0-.31.04-.47.22s-.61.6-.61 1.45c0 .86.62 1.7.71 1.81s1.21 1.94 2.99 2.64c1.47.58 1.77.47 2.09.44s1.03-.42 1.18-.83.14-.76.1-.83c-.04-.08-.16-.12-.33-.2-.18-.1-1.04-.52-1.2-.58s-.27-.08-.4.1c-.1.17-.44.56-.54.68s-.2.13-.38.04-.74-.27-1.4-.87a5 5 0 0 1-.98-1.2c-.1-.18 0-.28.08-.36l.26-.31c.09-.1.12-.18.18-.3q.06-.17-.02-.3c-.04-.09-.38-.95-.54-1.3M2.2 8.01c0 1.28.36 2.25 1.03 3.3l-.59 2.15 2.2-.58A5.8 5.8 0 1 0 2.19 8"/>
  </symbol>
</svg>