<svg xmlns="http://www.w3.org/2000/svg" fill="currentColor" viewBox="0 0 16 16">
  <path d="m.04 16 1.12-4.11C-1.86 6.65 1.91 0 8.03 0c4.39 0 7.94 3.55 7.93 7.93 0 4.38-3.56 7.93-7.93 7.93-2.13.03-3.78-.96-3.79-.96L.04 16zM6.05 4.61c-.15-.33-.3-.33-.45-.34h-.37c-.14 0-.35.05-.53.24-.18.2-.7.68-.7 1.66 0 .97.71 1.91.81 2.05.1.13 1.37 2.19 3.39 2.99 1.67.66 2.01.53 2.37.49.37-.03 1.18-.48 1.34-.94.17-.46.17-.86.12-.94-.05-.08-.18-.13-.38-.23s-1.17-.58-1.36-.65c-.18-.06-.31-.1-.44.1s-.51.65-.63.78c-.11.13-.23.15-.43.05-.2-.1-.83-.31-1.59-.98-.59-.53-.99-1.18-1.1-1.38-.12-.2-.02-.3.08-.4.09-.09.2-.23.3-.35.1-.11.13-.2.2-.33.06-.13.03-.25-.02-.35-.05-.1-.43-1.07-.61-1.47zM1.44 7.94c0 1.45.41 2.55 1.17 3.75l-.67 2.43 2.5-.66c5.01 2.98 10.19-.76 10.19-5.53a6.59 6.59 0 0 0-6.59-6.59 6.6 6.6 0 0 0-6.6 6.6z"/>
</svg>