<svg xmlns="http://www.w3.org/2000/svg" viewBox="0 0 16 16">
  <path fill="currentColor" stroke="none" d="m.95 15.12 1-3.62A7 7 0 1 1 8 15c-1.9.02-3.35-.85-3.35-.85zm5.3-10.05c-.13-.29-.27-.3-.39-.3h-.33c-.12 0-.31.04-.47.22s-.61.6-.61 1.45c0 .86.62 1.7.71 1.81s1.21 1.94 2.99 2.64c1.47.58 1.77.47 2.09.44s1.03-.42 1.18-.83.14-.76.1-.83c-.04-.08-.16-.12-.33-.2-.18-.1-1.04-.52-1.2-.58s-.27-.08-.4.1c-.1.17-.44.56-.54.68s-.2.13-.38.04-.74-.27-1.4-.87a5 5 0 0 1-.98-1.2c-.1-.18 0-.28.08-.36l.26-.31c.09-.1.12-.18.18-.3q.06-.17-.02-.3c-.04-.09-.38-.95-.54-1.3M2.2 8.01c0 1.28.36 2.25 1.03 3.3l-.59 2.15 2.2-.58A5.8 5.8 0 1 0 2.19 8"/>
</svg>